<mxfile host="app.diagrams.net" modified="2023-06-06T04:04:11.787Z" agent="Mozilla/5.0 (Windows NT 10.0; Win64; x64) AppleWebKit/537.36 (KHTML, like Gecko) Chrome/114.0.0.0 Safari/537.36" version="21.3.7" etag="I3yb4ZXR7Fb-h90SV31n" type="github">
  <diagram name="Strona-1" id="xJ57f91rWeRLoQZYYHyp">
    <mxGraphModel>
      <root>
        <mxCell id="0" />
        <mxCell id="1" parent="0" />
      </root>
    </mxGraphModel>
  </diagram>
</mxfile>
